<?xml version="1.0" standalone="no"?>
<!DOCTYPE svg PUBLIC "-//W3C//DTD SVG 20010904//EN"
 "http://www.w3.org/TR/2001/REC-SVG-20010904/DTD/svg10.dtd">
<svg version="1.0" xmlns="http://www.w3.org/2000/svg"
 width="512.000000pt" height="512.000000pt" viewBox="0 0 512.000000 512.000000"
 preserveAspectRatio="xMidYMid meet">
<metadata>
Created by potrace 1.11, written by Peter Selinger 2001-2013
</metadata>
<g transform="translate(0.000000,512.000000) scale(0.100000,-0.100000)"
fill="#000000" stroke="none">
<path d="M25 4156 c-12 -13 -12 -106 -1 -125 6 -9 5 -12 -1 -8 -6 4 -9 -9 -8
-36 2 -23 4 -42 5 -42 1 0 3 -10 4 -22 1 -12 0 -20 -4 -18 -4 2 -6 -15 -5 -38
2 -23 4 -42 5 -42 1 0 3 -10 4 -22 1 -12 0 -20 -4 -18 -4 2 -6 -15 -5 -38 2
-23 4 -42 5 -42 1 0 3 -10 4 -22 1 -12 0 -20 -4 -18 -4 2 -6 -15 -5 -38 2 -23
4 -42 5 -42 1 0 3 -10 4 -22 1 -12 0 -20 -4 -18 -4 2 -6 -15 -5 -38 2 -23 4
-42 5 -42 1 0 3 -10 4 -22 1 -12 -1 -20 -6 -17 -11 7 -10 -7 1 -26 6 -8 7 -19
3 -25 -12 -19 -12 -45 1 -46 6 -1 215 -3 462 -5 509 -4 565 -6 565 -17 0 -5 5
-5 10 -2 5 3 10 1 10 -4 0 -6 7 -11 15 -11 8 0 15 -4 15 -9 0 -4 8 -8 18 -8
56 0 72 -4 72 -18 0 -8 5 -16 10 -16 6 -1 15 -3 20 -4 6 -1 14 -3 18 -4 8 -1
25 -14 70 -51 6 -6 12 -9 12 -6 0 3 11 -6 25 -20 14 -14 30 -22 37 -18 6 4 8
3 4 -4 -3 -6 4 -19 17 -29 13 -10 26 -26 30 -35 3 -10 13 -18 22 -18 8 0 15
-6 15 -12 0 -7 11 -26 25 -42 14 -16 25 -35 25 -43 0 -7 6 -16 14 -19 8 -3 18
-19 21 -35 12 -55 26 -46 39 26 6 33 27 85 35 85 4 0 8 7 9 15 1 8 3 22 4 30
1 8 8 17 15 19 8 3 11 10 8 16 -3 5 -2 10 4 10 5 0 12 14 16 31 4 17 10 28 13
25 8 -9 42 46 35 57 -3 6 -1 7 5 3 7 -4 20 6 32 26 11 18 20 30 20 27 0 -4 19
12 43 35 24 22 42 44 40 49 -2 4 2 7 10 7 8 0 26 12 40 26 14 14 32 27 39 28
8 1 25 11 38 23 12 12 27 20 31 17 4 -2 10 0 14 6 4 6 11 8 16 5 5 -4 9 -1 9
5 0 6 4 9 9 6 5 -3 11 0 14 8 3 7 23 17 44 20 62 11 69 15 71 40 1 17 -5 27
-18 31 -11 4 -20 12 -20 18 0 7 -9 18 -20 25 -11 7 -20 19 -20 28 0 8 -4 13
-8 10 -5 -3 -15 6 -22 19 -7 14 -21 27 -32 31 -10 3 -18 9 -18 14 0 5 -16 20
-35 33 -19 13 -32 27 -28 30 3 4 2 7 -4 7 -6 0 -31 16 -55 36 -23 19 -51 42
-62 51 -10 8 -25 16 -33 17 -8 1 -19 9 -24 17 -5 8 -9 11 -9 7 0 -4 -9 0 -20
10 -12 9 -25 17 -30 17 -4 0 -20 10 -33 22 -14 12 -28 19 -31 16 -3 -3 -12 0
-21 7 -8 7 -15 9 -15 6 0 -4 -10 2 -22 14 -19 18 -44 24 -85 23 -7 -1 -11 3
-8 7 6 10 -23 35 -32 27 -3 -4 -14 -2 -24 3 -9 6 -35 12 -56 16 -21 3 -43 11
-48 17 -6 7 -16 13 -24 15 -18 4 -127 13 -163 14 -15 0 -25 4 -22 9 8 13 -10
11 -25 -3 -11 -11 -13 -10 -8 3 3 9 0 16 -9 16 -7 0 -11 -5 -8 -11 3 -6 -2 -2
-10 8 -16 20 -16 20 -16 0 -1 -18 -1 -18 -11 0 -9 15 -13 16 -20 5 -5 -8 -9
-9 -9 -3 0 12 -197 13 -217 1 -6 -4 -14 -3 -17 2 -6 10 -125 9 -142 -2 -6 -3
-14 -3 -18 1 -12 12 -126 11 -126 -2 0 -8 -2 -8 -8 0 -4 6 -29 11 -57 11 -27
0 -53 -5 -57 -11 -6 -8 -8 -8 -8 0 0 14 -88 13 -109 0 -9 -6 -12 -5 -8 1 4 6
-15 10 -48 10 -33 0 -52 -4 -48 -10 4 -6 1 -7 -8 -1 -20 13 -143 13 -154 0z"/>
<path d="M4025 4146 c-10 -13 -14 -15 -12 -5 3 9 -1 16 -9 16 -8 0 -13 -6 -10
-12 3 -8 -5 -12 -25 -10 -16 1 -29 0 -29 -4 0 -3 -30 -7 -66 -8 -37 -1 -72 -7
-81 -15 -14 -11 -16 -11 -9 0 7 12 4 12 -15 1 -13 -7 -27 -12 -31 -11 -5 1 -8
-6 -8 -16 0 -9 -4 -13 -8 -7 -6 9 -25 11 -44 5 -5 -1 -11 -3 -15 -4 -5 -1 -14
-5 -20 -9 -7 -5 -13 -6 -13 -3 0 3 -9 -2 -20 -11 -11 -9 -32 -18 -47 -20 -43
-5 -55 -12 -47 -24 4 -7 3 -9 -4 -5 -6 3 -13 2 -16 -3 -3 -5 -22 -12 -41 -15
-20 -4 -33 -11 -30 -17 4 -5 -1 -9 -10 -9 -8 0 -18 -6 -21 -14 -3 -8 -12 -12
-20 -9 -8 3 -14 0 -14 -7 0 -6 -5 -8 -10 -5 -6 3 -13 -1 -16 -9 -3 -9 -12 -16
-20 -16 -8 0 -14 -4 -14 -10 0 -5 -6 -7 -14 -4 -8 3 -17 0 -22 -7 -5 -8 -3
-10 7 -4 12 8 12 6 0 -8 -7 -9 -17 -14 -22 -11 -5 3 -20 -6 -33 -20 -13 -14
-27 -26 -32 -26 -5 0 -18 -11 -28 -25 -10 -14 -25 -25 -32 -25 -13 0 -18 -12
-15 -32 0 -5 -2 -7 -7 -7 -19 3 -33 -2 -27 -11 3 -5 1 -10 -4 -10 -6 0 -20 -9
-31 -20 -11 -11 -18 -20 -15 -20 3 0 -17 -22 -45 -49 -56 -55 -68 -100 -27
-103 36 -2 41 -3 55 -11 6 -5 12 -5 12 -1 0 3 9 -4 21 -17 11 -13 17 -18 14
-10 -6 9 -1 9 17 -3 14 -9 28 -13 31 -10 4 4 9 -1 13 -10 3 -9 12 -16 20 -16
8 0 14 -4 14 -10 0 -5 7 -10 16 -10 9 0 27 -12 40 -27 13 -16 24 -24 24 -20 0
5 22 -14 49 -42 27 -28 54 -51 60 -51 6 0 10 -3 10 -7 -3 -21 3 -32 21 -38 11
-3 20 -11 20 -16 0 -6 11 -25 24 -42 13 -18 27 -42 31 -54 3 -13 11 -23 16
-23 5 0 9 -7 9 -16 0 -8 3 -13 8 -11 4 3 8 -7 9 -21 0 -15 6 -28 12 -30 6 -2
9 -7 6 -12 -3 -5 2 -15 11 -24 8 -9 12 -20 9 -26 -3 -5 0 -10 7 -10 10 0 10
-2 1 -8 -7 -5 -9 -13 -3 -21 4 -8 6 -20 4 -26 -3 -7 2 -15 10 -18 9 -4 16 -2
16 4 0 5 9 20 21 32 11 12 18 30 16 39 -3 10 0 16 6 15 6 -1 11 3 12 8 0 12 9
23 83 102 28 31 52 60 52 65 0 4 7 8 15 8 9 0 18 7 21 15 3 8 14 17 24 20 10
3 30 17 46 30 16 14 37 25 47 25 9 0 17 5 17 11 0 5 5 7 10 4 6 -3 10 -2 10 3
0 12 50 29 97 34 12 1 20 5 18 8 -1 3 3 11 11 18 11 10 14 10 14 0 0 -8 3 -9
8 -3 4 6 16 10 27 10 11 0 26 4 33 9 7 5 12 4 12 -3 0 -7 5 -9 13 -4 6 4 219
8 472 8 l460 0 0 420 0 420 -42 0 c-22 0 -39 -4 -36 -9 4 -5 0 -5 -8 0 -20 12
-38 14 -45 3 -3 -5 -11 -6 -17 -2 -18 11 -36 12 -43 2 -3 -5 -11 -6 -17 -2
-17 11 -31 10 -39 -2 -5 -7 -8 -7 -8 1 0 12 -49 13 -67 1 -6 -4 -15 -2 -19 4
-4 8 -9 7 -15 -2 -5 -8 -9 -9 -9 -4 0 12 -104 14 -116 2 -4 -4 -13 -2 -21 4
-10 9 -13 8 -13 -2 0 -9 -3 -10 -8 -4 -9 13 -152 13 -152 0 0 -6 -3 -6 -8 0
-4 6 -16 11 -27 11 -11 0 -23 -5 -27 -11 -5 -6 -8 -6 -8 2 0 11 -7 11 -45 3
-5 -1 -12 -1 -15 0 -15 7 -102 5 -107 -2 -2 -5 -11 -4 -18 2 -9 8 -15 8 -20 0
-3 -6 -12 -7 -18 -3 -23 14 -39 12 -33 -5 5 -15 4 -15 -6 -2 -19 22 -55 20
-73 -4z"/>
<path d="M2505 2982 c-2 -3 -18 -6 -36 -7 -17 -2 -35 -8 -39 -15 -4 -7 -13 -9
-19 -6 -6 4 -11 2 -11 -3 0 -6 -9 -11 -19 -11 -11 0 -27 -7 -35 -16 -9 -8 -16
-12 -16 -8 0 4 -7 -1 -15 -12 -8 -10 -15 -15 -15 -10 0 11 -60 -56 -60 -67 0
-5 -4 -6 -9 -3 -7 5 -33 -37 -35 -57 -1 -4 -6 -11 -12 -15 -14 -9 -25 -40 -30
-81 -2 -19 -8 -38 -15 -42 -8 -4 -6 -10 7 -18 14 -8 15 -10 4 -11 -16 0 -25
-50 -9 -50 5 0 9 -5 9 -11 0 -5 -4 -8 -8 -5 -5 3 -9 -1 -9 -9 0 -8 3 -15 7
-15 4 0 7 -13 8 -29 1 -44 21 -108 38 -126 8 -8 12 -15 7 -15 -4 0 -3 -4 4 -8
6 -4 13 -13 15 -21 4 -19 41 -58 51 -54 4 2 7 -3 7 -11 0 -9 7 -16 15 -16 8 0
15 -4 15 -10 0 -5 6 -10 13 -10 7 0 17 -8 23 -18 6 -9 23 -18 38 -20 15 -1 34
-9 42 -17 19 -18 27 -19 19 -2 -4 6 0 5 7 -5 11 -13 33 -16 121 -16 72 -1 111
3 119 12 7 7 16 13 21 14 4 1 9 3 12 3 3 1 10 3 15 4 6 1 12 4 15 5 7 3 22 7
36 9 5 0 8 4 6 9 -6 8 13 26 33 30 42 10 139 147 143 201 1 17 5 31 9 31 3 0
5 11 4 25 -2 14 1 22 6 18 6 -3 7 3 3 16 -4 14 -2 21 7 21 10 0 9 3 -2 10 -13
9 -13 10 0 10 13 0 13 1 0 10 -12 8 -12 10 -1 10 10 0 11 3 2 13 -6 8 -8 17
-4 20 3 4 0 14 -8 23 -8 10 -13 19 -11 21 1 1 2 4 1 6 -1 1 -2 16 -4 32 -1 17
-4 31 -5 33 -1 1 -3 6 -4 11 0 5 -10 20 -21 33 -11 14 -21 31 -23 38 -5 19
-74 90 -88 90 -7 0 -15 7 -18 16 -3 8 -10 13 -15 10 -5 -3 -11 0 -14 8 -3 7
-22 16 -41 20 -20 4 -36 11 -36 16 0 12 -184 33 -195 22z"/>
<path d="M3545 2253 c3 -3 1 -11 -4 -17 -5 -6 -10 -27 -12 -46 -2 -19 -8 -41
-13 -49 -9 -12 -8 -13 4 -7 8 4 5 -1 -7 -12 -13 -11 -23 -26 -23 -34 0 -8 -5
-19 -12 -26 -9 -9 -9 -12 2 -12 9 0 7 -5 -6 -17 -24 -22 -55 -78 -49 -87 3 -3
2 -4 -1 -1 -8 5 -34 -20 -34 -34 0 -6 -9 -16 -20 -23 -11 -7 -20 -17 -20 -21
0 -12 -27 -37 -39 -37 -6 0 -10 -3 -9 -7 3 -10 -60 -73 -75 -76 -7 -1 -20 -12
-30 -24 -10 -13 -23 -23 -28 -23 -6 0 -25 -11 -43 -25 -18 -14 -39 -25 -47
-25 -20 -1 -50 -25 -42 -34 4 -4 0 -4 -10 0 -9 3 -17 2 -17 -3 0 -6 -13 -9
-29 -8 -32 2 -65 -13 -68 -31 -1 -7 11 -26 27 -43 17 -17 30 -36 30 -41 0 -6
5 -8 10 -5 6 3 10 -3 10 -15 0 -12 4 -19 8 -16 10 6 43 -30 35 -38 -4 -3 -2
-6 4 -6 16 0 53 -36 45 -45 -4 -5 1 -5 10 -2 11 4 17 2 15 -6 -1 -7 3 -11 10
-10 6 2 15 -6 18 -17 4 -11 11 -20 16 -20 5 0 11 0 14 0 2 -1 21 -16 41 -35
20 -19 40 -32 45 -29 5 3 6 -2 3 -10 -4 -10 4 -16 23 -20 16 -4 35 -16 43 -26
8 -11 22 -20 32 -20 10 0 18 -5 18 -12 0 -6 3 -9 6 -5 3 3 14 -3 24 -13 11
-11 28 -17 40 -15 13 3 18 0 14 -7 -5 -8 -1 -9 10 -5 10 4 15 3 11 -3 -7 -11
26 -30 54 -30 12 0 21 -5 21 -12 0 -6 3 -8 7 -5 3 4 14 0 24 -9 10 -9 29 -17
43 -18 14 0 26 -4 26 -8 0 -4 7 -5 15 -2 8 4 15 1 15 -6 0 -9 3 -10 14 -1 11
9 15 7 20 -11 5 -18 8 -20 15 -9 6 10 10 10 13 1 2 -7 27 -12 66 -13 48 -2 62
-5 62 -17 0 -9 3 -11 8 -5 4 6 13 10 20 9 6 -1 17 -2 23 -3 5 0 8 -5 5 -10 -3
-5 1 -11 9 -15 8 -3 15 -1 15 5 0 6 5 7 13 2 12 -8 1099 -15 1128 -7 14 4 16
46 16 414 0 286 -4 410 -11 412 -33 4 -42 2 -54 -12 -8 -8 -11 -10 -8 -4 3 7
-5 14 -19 16 -14 3 -25 1 -25 -5 0 -7 -4 -7 -12 1 -8 8 -17 8 -31 1 -14 -8
-18 -8 -13 0 4 6 2 11 -3 11 -6 0 -11 -8 -12 -17 0 -15 -2 -15 -9 2 -6 13 -9
15 -9 5 -1 -13 -2 -13 -11 0 -9 13 -10 13 -10 0 0 -12 -2 -12 -9 -2 -4 8 -11
13 -14 12 -4 -1 -20 -5 -37 -10 -18 -5 -30 -5 -30 1 0 5 -5 9 -11 9 -5 0 -7
-6 -3 -12 5 -8 0 -7 -11 2 -17 14 -18 13 -12 -4 6 -14 4 -16 -5 -9 -20 16 -67
21 -72 9 -3 -7 -5 -7 -5 2 -1 6 -5 12 -11 12 -5 0 -7 -8 -3 -17 5 -15 3 -14
-10 2 -9 11 -17 15 -17 9 0 -8 -11 -9 -35 -4 -23 5 -36 4 -39 -4 -3 -7 -5 -7
-5 2 -1 6 -5 12 -11 12 -5 0 -7 -8 -3 -17 5 -15 3 -14 -10 2 -9 11 -17 15 -17
9 0 -8 -11 -9 -35 -4 -23 5 -36 4 -39 -4 -3 -7 -5 -7 -5 2 -1 6 -5 12 -11 12
-5 0 -7 -8 -3 -17 5 -15 3 -14 -10 2 -9 11 -17 15 -17 9 0 -8 -11 -9 -35 -4
-21 5 -35 4 -35 -2 0 -5 -6 -6 -12 -2 -19 12 -108 11 -108 -1 0 -5 -4 -4 -9 4
-5 8 -30 16 -58 18 -64 5 -72 7 -118 28 -22 10 -44 19 -50 20 -14 2 -49 17
-55 24 -14 16 -52 31 -63 25 -7 -4 -9 -4 -5 1 9 9 -25 42 -53 50 -10 4 -18 10
-16 15 1 4 -2 10 -8 12 -16 5 -80 71 -78 79 2 4 -6 11 -17 14 -11 4 -18 10
-15 14 2 5 -10 24 -28 42 -17 19 -30 34 -28 34 2 0 1 10 -3 23 -4 12 -11 22
-16 22 -6 0 -18 26 -24 52 0 3 -4 9 -8 12 -5 3 -6 3 -3 -1z"/>
<path d="M1567 2234 c-4 -4 -7 -15 -7 -24 0 -9 -9 -27 -20 -40 -11 -13 -20
-28 -20 -34 0 -6 -12 -24 -26 -39 -14 -16 -27 -36 -28 -45 -2 -9 -7 -17 -12
-17 -5 0 -34 -25 -65 -55 -31 -30 -62 -56 -70 -58 -8 -2 -22 -12 -32 -23 -10
-10 -24 -19 -31 -19 -8 0 -19 -6 -25 -14 -7 -8 -37 -22 -67 -32 -30 -9 -54
-21 -54 -26 0 -5 -4 -7 -9 -3 -5 3 -12 1 -15 -4 -4 -5 -19 -10 -34 -10 -46 -1
-76 -6 -89 -14 -8 -5 -13 -4 -13 3 0 6 -12 4 -31 -6 -17 -8 -28 -11 -24 -5 7
12 -29 10 -41 -2 -4 -4 -13 -2 -20 4 -8 6 -14 7 -18 0 -4 -6 -12 -8 -19 -6
-35 12 -88 14 -81 4 5 -8 1 -8 -14 0 -27 14 -35 14 -26 -1 4 -7 3 -8 -5 -4
-18 11 -181 14 -174 3 3 -5 -4 -4 -15 2 -14 8 -23 8 -27 1 -5 -8 -11 -8 -20 0
-10 8 -15 8 -20 0 -5 -8 -10 -8 -20 0 -10 8 -15 8 -20 0 -5 -8 -10 -8 -20 0
-8 7 -15 7 -19 1 -5 -8 -45 -8 -66 -1 -12 5 -46 -3 -60 -13 -13 -10 -13 -10
-2 4 11 14 9 17 -13 17 -13 0 -22 -5 -19 -10 4 -6 -3 -5 -14 1 -25 13 -35 14
-27 2 5 -8 -46 1 -60 11 -2 2 -11 -6 -20 -17 -9 -11 -14 -15 -11 -9 3 7 -2 15
-11 18 -10 4 -14 4 -10 0 4 -4 1 -14 -6 -22 -10 -13 -9 -14 3 -7 12 7 13 6 3
-6 -10 -12 -10 -18 0 -29 9 -10 9 -11 -1 -6 -8 5 -11 0 -8 -16 3 -13 5 -23 6
-23 1 0 3 -10 4 -22 1 -12 0 -20 -4 -18 -4 2 -6 -15 -5 -38 2 -23 4 -42 5 -42
1 0 3 -10 4 -22 1 -12 0 -20 -4 -18 -4 2 -6 -15 -5 -38 2 -23 4 -42 5 -42 1 0
3 -10 4 -22 1 -12 0 -20 -4 -18 -4 2 -6 -15 -5 -38 2 -23 4 -42 5 -42 1 0 3
-10 4 -22 1 -12 0 -20 -4 -18 -4 2 -6 -15 -5 -38 2 -23 4 -42 5 -42 1 0 3 -10
4 -22 1 -12 0 -20 -4 -18 -4 2 -6 -15 -5 -38 2 -23 4 -42 5 -42 1 0 3 -10 4
-22 1 -12 0 -20 -4 -18 -4 2 -7 -14 -6 -35 1 -27 6 -42 16 -44 8 -3 276 -4
594 -3 453 2 580 5 584 15 2 6 8 12 13 12 6 0 7 -6 3 -12 -6 -10 -5 -10 8 -1
8 7 19 9 23 5 5 -4 5 -2 2 4 -4 7 2 14 13 17 11 3 20 1 20 -5 0 -5 6 -6 12 -1
7 4 31 9 52 10 22 2 46 9 55 16 12 10 13 9 7 -3 -4 -8 2 -4 14 10 12 14 18 18
14 10 -7 -13 -6 -13 11 0 10 8 20 14 22 12 8 -7 73 11 73 20 0 5 4 7 9 4 5 -4
11 0 13 6 3 7 11 13 19 13 33 2 69 18 69 32 0 8 5 11 10 8 6 -3 10 -1 10 5 0
6 5 8 11 4 13 -8 60 16 54 27 -3 4 8 10 24 14 15 3 38 15 49 25 12 11 26 20
31 20 5 0 17 10 26 23 8 12 17 20 19 17 4 -6 61 36 98 73 15 15 30 27 32 27 3
0 32 27 64 60 33 33 58 60 57 60 -2 0 17 21 42 47 24 26 40 49 34 51 -6 2 -11
10 -11 18 0 9 -4 12 -10 9 -5 -3 -16 -3 -22 2 -13 8 -29 12 -60 15 -10 1 -18
6 -18 10 0 4 -6 8 -14 8 -8 0 -16 4 -18 10 -1 5 -15 11 -30 12 -16 1 -28 7
-28 13 0 12 -69 50 -83 47 -5 -2 -6 2 -2 7 3 6 -8 17 -25 26 -16 8 -30 20 -30
25 0 6 -11 15 -24 21 -13 6 -27 20 -29 31 -3 11 -10 17 -16 13 -6 -3 -15 4
-20 17 -5 13 -17 31 -28 40 -28 26 -45 48 -36 48 4 0 0 5 -9 10 -9 6 -19 24
-23 40 -4 17 -15 35 -26 41 -11 5 -17 14 -14 20 4 5 1 9 -5 9 -6 0 -8 4 -5 10
8 13 -22 70 -38 70 -8 0 -7 4 3 10 8 5 10 10 5 10 -6 0 -12 15 -13 32 -3 35
-14 53 -25 42z"/>
</g>
</svg>
